STARTFONT 2.3
FONT -FontForge-Henny Penny-Book-R-Normal--11-110-72-72-P-63-ISO10646-1
SIZE 11 72 72  2
FONTBOUNDINGBOX 16 20 -2 -7
COMMENT "Generated by fontforge, http://fontforge.sourceforge.net"
COMMENT "Copyright (c) 2012, Brownfox (gayaneh.b@gmail.com), with Reserved Font Name "Henny Penny""
STARTPROPERTIES 40
FOUNDRY "FontForge"
FAMILY_NAME "Henny Penny"
WEIGHT_NAME "Book"
SLANT "R"
SETWIDTH_NAME "Normal"
ADD_STYLE_NAME ""
PIXEL_SIZE 11
POINT_SIZE 110
RESOLUTION_X 72
RESOLUTION_Y 72
SPACING "P"
AVERAGE_WIDTH 63
CHARSET_REGISTRY "ISO10646"
CHARSET_ENCODING "1"
FONTNAME_REGISTRY ""
CHARSET_COLLECTIONS "ISO10646-1"
BITS_PER_PIXEL 2
FONT_NAME "HennyPenny-Regular"
FACE_NAME "Henny Penny"
COPYRIGHT "Copyright (c) 2012, Brownfox (gayaneh.b@gmail.com), with Reserved Font Name "Henny Penny""
FONT_VERSION "1.001"
FONT_ASCENT 9
FONT_DESCENT 2
UNDERLINE_POSITION -1
UNDERLINE_THICKNESS 1
X_HEIGHT 6
CAP_HEIGHT 8
RAW_ASCENT 799
RAW_DESCENT 200
NORM_SPACE 3
RELATIVE_WEIGHT 40
RELATIVE_SETWIDTH 50
SUPERSCRIPT_X 0
SUPERSCRIPT_Y 3
SUPERSCRIPT_SIZE 6
SUBSCRIPT_X 0
SUBSCRIPT_Y 0
SUBSCRIPT_SIZE 6
AVG_LOWERCASE_WIDTH 55
AVG_UPPERCASE_WIDTH 79
ENDPROPERTIES
CHARS 233
STARTCHAR space
ENCODING 32
SWIDTH 270 0
DWIDTH 3 0
BBX 1 1 0 0
BITMAP
00
ENDCHAR
STARTCHAR exclam
ENCODING 33
SWIDTH 249 0
DWIDTH 3 0
BBX 2 10 0 0
BITMAP
70
70
70
30
30
20
20
10
00
60
ENDCHAR
STARTCHAR quotedbl
ENCODING 34
SWIDTH 292 0
DWIDTH 3 0
BBX 3 4 0 5
BITMAP
58
58
58
14
ENDCHAR
STARTCHAR numbersign
ENCODING 35
SWIDTH 1030 0
DWIDTH 11 0
BBX 8 12 1 -3
BITMAP
0010
0044
0044
56A5
0120
0140
5A95
5940
2200
2500
0800
0400
ENDCHAR
STARTCHAR dollar
ENCODING 36
SWIDTH 799 0
DWIDTH 9 0
BBX 7 12 1 -2
BITMAP
0044
0BF4
1D60
1D50
0F40
07C0
02E0
11B0
5470
B4A0
5F80
0400
ENDCHAR
STARTCHAR percent
ENCODING 37
SWIDTH 789 0
DWIDTH 9 0
BBX 9 10 0 0
BITMAP
2E0100
624400
725000
2E5000
004000
020000
042E00
149240
109240
407E00
ENDCHAR
STARTCHAR ampersand
ENCODING 38
SWIDTH 773 0
DWIDTH 9 0
BBX 8 11 0 -1
BITMAP
0B80
1880
1540
1A00
1C19
3D49
B704
B288
74E4
2FBA
0009
ENDCHAR
STARTCHAR quotesingle
ENCODING 39
SWIDTH 174 0
DWIDTH 2 0
BBX 2 3 0 6
BITMAP
50
50
10
ENDCHAR
STARTCHAR parenleft
ENCODING 40
SWIDTH 431 0
DWIDTH 5 0
BBX 5 16 0 -5
BITMAP
0400
1000
2000
6000
9000
9000
9000
D000
9000
A000
7000
3400
1800
0900
0200
0040
ENDCHAR
STARTCHAR parenright
ENCODING 41
SWIDTH 443 0
DWIDTH 5 0
BBX 5 11 0 -3
BITMAP
2400
0A00
0340
0280
0280
0180
0280
0300
0900
2400
4000
ENDCHAR
STARTCHAR asterisk
ENCODING 42
SWIDTH 490 0
DWIDTH 5 0
BBX 5 5 0 5
BITMAP
0800
0580
6A00
1A40
0040
ENDCHAR
STARTCHAR plus
ENCODING 43
SWIDTH 440 0
DWIDTH 5 0
BBX 4 6 0 1
BITMAP
04
04
04
7F
04
04
ENDCHAR
STARTCHAR comma
ENCODING 44
SWIDTH 251 0
DWIDTH 3 0
BBX 3 4 0 -2
BITMAP
70
74
20
10
ENDCHAR
STARTCHAR hyphen
ENCODING 45
SWIDTH 436 0
DWIDTH 5 0
BBX 4 1 0 2
BITMAP
7F
ENDCHAR
STARTCHAR period
ENCODING 46
SWIDTH 238 0
DWIDTH 3 0
BBX 2 2 0 0
BITMAP
70
70
ENDCHAR
STARTCHAR slash
ENCODING 47
SWIDTH 690 0
DWIDTH 8 0
BBX 8 10 0 0
BITMAP
0005
0004
0020
0050
0140
0200
0400
1400
1000
4000
ENDCHAR
STARTCHAR zero
ENCODING 48
SWIDTH 723 0
DWIDTH 8 0
BBX 8 8 0 1
BITMAP
0BE0
342C
A00E
900A
900A
A00A
381C
0BE0
ENDCHAR
STARTCHAR one
ENCODING 49
SWIDTH 505 0
DWIDTH 6 0
BBX 6 10 0 -1
BITMAP
0400
0C00
7D00
9D00
0A00
0600
0700
0740
0BD0
3400
ENDCHAR
STARTCHAR two
ENCODING 50
SWIDTH 534 0
DWIDTH 6 0
BBX 6 10 0 -1
BITMAP
2F40
52C0
41C0
4280
0200
0400
0000
7910
1BC0
0180
ENDCHAR
STARTCHAR three
ENCODING 51
SWIDTH 511 0
DWIDTH 6 0
BBX 6 9 0 -1
BITMAP
7F40
4100
0000
0A00
02C0
40E0
40A0
51D0
2F80
ENDCHAR
STARTCHAR four
ENCODING 52
SWIDTH 712 0
DWIDTH 8 0
BBX 8 11 0 -2
BITMAP
0040
0180
0680
11C0
50C0
64D0
06E4
00B8
0070
01B8
0005
ENDCHAR
STARTCHAR five
ENCODING 53
SWIDTH 757 0
DWIDTH 8 0
BBX 9 10 0 -1
BITMAP
00A140
016E00
010900
064000
00B000
402800
402800
403800
90B000
2F8000
ENDCHAR
STARTCHAR six
ENCODING 54
SWIDTH 598 0
DWIDTH 7 0
BBX 7 9 0 0
BITMAP
0BD0
3814
7000
ABD0
B470
A024
A024
3470
1B90
ENDCHAR
STARTCHAR seven
ENCODING 55
SWIDTH 507 0
DWIDTH 6 0
BBX 6 9 0 0
BITMAP
0050
FFC0
8140
4100
0100
0500
0C00
1800
2800
ENDCHAR
STARTCHAR eight
ENCODING 56
SWIDTH 476 0
DWIDTH 5 0
BBX 5 9 0 0
BITMAP
2E00
7040
7440
3E00
2B40
81C0
8080
91C0
6E40
ENDCHAR
STARTCHAR nine
ENCODING 57
SWIDTH 601 0
DWIDTH 7 0
BBX 7 8 0 0
BITMAP
2F80
A0B0
9074
9034
B474
2FB0
00A0
6F80
ENDCHAR
STARTCHAR colon
ENCODING 58
SWIDTH 246 0
DWIDTH 3 0
BBX 2 5 0 0
BITMAP
70
70
00
70
70
ENDCHAR
STARTCHAR semicolon
ENCODING 59
SWIDTH 266 0
DWIDTH 3 0
BBX 3 7 0 -2
BITMAP
34
34
00
00
70
30
10
ENDCHAR
STARTCHAR less
ENCODING 60
SWIDTH 522 0
DWIDTH 6 0
BBX 4 5 1 1
BITMAP
01
14
80
60
05
ENDCHAR
STARTCHAR equal
ENCODING 61
SWIDTH 655 0
DWIDTH 7 0
BBX 7 3 0 2
BITMAP
06B8
1500
7FA0
ENDCHAR
STARTCHAR greater
ENCODING 62
SWIDTH 533 0
DWIDTH 6 0
BBX 4 5 1 1
BITMAP
40
14
02
05
10
ENDCHAR
STARTCHAR question
ENCODING 63
SWIDTH 564 0
DWIDTH 6 0
BBX 6 10 0 -1
BITMAP
1F80
60E0
A0A0
B0E0
7680
0900
1000
2800
0000
1800
ENDCHAR
STARTCHAR at
ENCODING 64
SWIDTH 898 0
DWIDTH 10 0
BBX 10 11 0 -3
BITMAP
02FE00
090280
26EC40
1A1C10
4D0C10
4D0C10
4A2D80
52E740
203400
182400
07E000
ENDCHAR
STARTCHAR A
ENCODING 65
SWIDTH 784 0
DWIDTH 9 0
BBX 9 10 0 -1
BITMAP
0F8000
02D000
01A000
057000
047400
0BF800
087C00
201D00
F40E00
143F80
ENDCHAR
STARTCHAR B
ENCODING 66
SWIDTH 685 0
DWIDTH 8 0
BBX 8 11 0 -2
BITMAP
6BE0
1874
1834
0C50
0FF4
0C2C
0C0D
0C0D
1D2C
2FE4
5000
ENDCHAR
STARTCHAR C
ENCODING 67
SWIDTH 742 0
DWIDTH 8 0
BBX 8 11 0 -1
BITMAP
0001
0005
0BFD
3919
B001
A000
E000
F001
B401
3D05
0BF4
ENDCHAR
STARTCHAR D
ENCODING 68
SWIDTH 726 0
DWIDTH 8 0
BBX 8 9 0 -2
BITMAP
ABF4
282D
180E
180A
180E
1C2C
2FE0
3800
8000
ENDCHAR
STARTCHAR E
ENCODING 69
SWIDTH 557 0
DWIDTH 6 0
BBX 6 11 0 -2
BITMAP
5690
7810
3800
2800
2F00
1900
1800
1800
1C20
BFF0
0050
ENDCHAR
STARTCHAR F
ENCODING 70
SWIDTH 533 0
DWIDTH 6 0
BBX 6 10 0 0
BITMAP
05B0
BC20
2C10
1C00
1D40
1F40
0D40
0C00
1C00
BB00
ENDCHAR
STARTCHAR G
ENCODING 71
SWIDTH 750 0
DWIDTH 8 0
BBX 8 8 0 0
BITMAP
0001
0BD2
781D
B008
E005
E0FD
741D
1FE5
ENDCHAR
STARTCHAR H
ENCODING 72
SWIDTH 743 0
DWIDTH 8 0
BBX 8 13 0 -3
BITMAP
5000
2F45
28BE
181C
180C
181C
1FFC
280C
280C
280C
287F
BD00
4000
ENDCHAR
STARTCHAR I
ENCODING 73
SWIDTH 438 0
DWIDTH 5 0
BBX 7 12 -1 -2
BITMAP
3AF4
0B40
0700
0700
0600
0600
0600
0500
0500
0A00
1F80
5000
ENDCHAR
STARTCHAR J
ENCODING 74
SWIDTH 628 0
DWIDTH 7 0
BBX 8 13 0 -3
BITMAP
0019
07F4
01E0
00A0
00A0
00A0
0090
0090
0090
00C0
B580
FB40
7900
ENDCHAR
STARTCHAR K
ENCODING 75
SWIDTH 866 0
DWIDTH 10 0
BBX 10 11 0 -1
BITMAP
051000
FD3F00
382000
288000
2A4000
2EC000
18E010
187920
181BD0
3E0000
010000
ENDCHAR
STARTCHAR L
ENCODING 76
SWIDTH 660 0
DWIDTH 7 0
BBX 7 9 0 0
BITMAP
4000
7FC0
0E00
0D00
0D00
0D04
0D08
7FFC
1000
ENDCHAR
STARTCHAR M
ENCODING 77
SWIDTH 1089 0
DWIDTH 12 0
BBX 13 9 0 -1
BITMAP
00003D00
0A407000
06D06000
01703000
01383400
01182800
00002D00
E0003F40
B0005000
ENDCHAR
STARTCHAR N
ENCODING 78
SWIDTH 799 0
DWIDTH 9 0
BBX 9 10 0 -3
BITMAP
FD1F80
2F4500
17D100
11F500
107D00
102D00
100800
240000
BD0000
040000
ENDCHAR
STARTCHAR O
ENCODING 79
SWIDTH 747 0
DWIDTH 8 0
BBX 8 8 0 0
BITMAP
1BE4
342D
A00F
D00B
E007
B00B
381D
0BE4
ENDCHAR
STARTCHAR P
ENCODING 80
SWIDTH 623 0
DWIDTH 7 0
BBX 7 9 0 -1
BITMAP
FFF4
1D28
0D18
0D28
0FE0
0D00
0D00
1D00
6F40
ENDCHAR
STARTCHAR Q
ENCODING 81
SWIDTH 804 0
DWIDTH 9 0
BBX 13 13 0 -5
BITMAP
0BF40000
241E0000
A0074000
D0038000
D0028000
E07A8000
B08B4000
3D4B0000
0BE74000
00038000
0002C040
0001E140
00007E00
ENDCHAR
STARTCHAR R
ENCODING 82
SWIDTH 869 0
DWIDTH 10 0
BBX 10 9 0 -1
BITMAP
FFE000
2D3800
1C7800
1FF400
0CD000
0CA010
0D3910
BE0BD0
010000
ENDCHAR
STARTCHAR S
ENCODING 83
SWIDTH 517 0
DWIDTH 6 0
BBX 6 10 0 -1
BITMAP
0B50
2850
2810
0D00
0700
01C0
40D0
80A0
A0E0
4B80
ENDCHAR
STARTCHAR T
ENCODING 84
SWIDTH 659 0
DWIDTH 7 0
BBX 8 11 0 -1
BITMAP
BFFE
80C6
40C1
11C0
01C0
01C0
01C0
01C0
02D0
07F8
0900
ENDCHAR
STARTCHAR U
ENCODING 85
SWIDTH 690 0
DWIDTH 8 0
BBX 8 8 0 0
BITMAP
1680
FEBF
2C18
2C04
2C04
1C04
0E14
07E0
ENDCHAR
STARTCHAR V
ENCODING 86
SWIDTH 798 0
DWIDTH 9 0
BBX 10 9 0 0
BITMAP
014000
FE4010
1E0190
071F40
028200
01D400
00F400
007400
002000
ENDCHAR
STARTCHAR W
ENCODING 87
SWIDTH 1120 0
DWIDTH 12 0
BBX 14 10 0 -1
BITMAP
00000400
00000BE0
04000200
68000500
2C140400
0D1D0400
0A4A1000
07479000
0202C000
00014000
ENDCHAR
STARTCHAR X
ENCODING 88
SWIDTH 868 0
DWIDTH 10 0
BBX 9 10 0 -1
BITMAP
014000
FF8000
0B8280
02D500
00B400
00B800
010C00
050600
BE2F80
060000
ENDCHAR
STARTCHAR Y
ENCODING 89
SWIDTH 796 0
DWIDTH 9 0
BBX 10 12 0 -2
BITMAP
050100
BD03E0
2D0100
074400
02E000
00E000
00A000
00A000
00A000
00E000
07F400
001400
ENDCHAR
STARTCHAR Z
ENCODING 90
SWIDTH 627 0
DWIDTH 7 0
BBX 7 10 0 -2
BITMAP
5000
7FC0
5380
4340
0600
0904
0C04
1818
2AFC
2900
ENDCHAR
STARTCHAR bracketleft
ENCODING 91
SWIDTH 344 0
DWIDTH 4 0
BBX 4 11 0 -2
BITMAP
39
70
60
60
A0
A0
90
90
D0
E0
BD
ENDCHAR
STARTCHAR backslash
ENCODING 92
SWIDTH 347 0
DWIDTH 4 0
BBX 4 11 0 -1
BITMAP
40
40
10
10
10
10
04
04
04
05
01
ENDCHAR
STARTCHAR bracketright
ENCODING 93
SWIDTH 334 0
DWIDTH 4 0
BBX 4 10 0 -3
BITMAP
7C
1C
1C
0D
0D
0D
0D
0E
29
50
ENDCHAR
STARTCHAR asciicircum
ENCODING 94
SWIDTH 658 0
DWIDTH 7 0
BBX 7 3 0 6
BITMAP
0600
1ED0
6068
ENDCHAR
STARTCHAR underscore
ENCODING 95
SWIDTH 678 0
DWIDTH 7 0
BBX 6 2 1 -4
BITMAP
6AE0
5000
ENDCHAR
STARTCHAR grave
ENCODING 96
SWIDTH 278 0
DWIDTH 3 0
BBX 3 2 0 8
BITMAP
60
14
ENDCHAR
STARTCHAR a
ENCODING 97
SWIDTH 527 0
DWIDTH 6 0
BBX 6 8 0 -1
BITMAP
2E00
5740
3240
0280
6F80
92C0
79D0
00B0
ENDCHAR
STARTCHAR b
ENCODING 98
SWIDTH 582 0
DWIDTH 6 0
BBX 8 13 -1 -1
BITMAP
1400
F800
1800
1800
0800
0C00
0C00
0DF4
0D1C
0D0D
0E1C
1FF4
3400
ENDCHAR
STARTCHAR c
ENCODING 99
SWIDTH 437 0
DWIDTH 5 0
BBX 5 6 0 1
BITMAP
2F00
5740
8000
9040
A040
2E00
ENDCHAR
STARTCHAR d
ENCODING 100
SWIDTH 523 0
DWIDTH 6 0
BBX 6 10 0 1
BITMAP
0180
07C0
01C0
01C0
01C0
01C0
6FC0
A080
A1C0
6FE0
ENDCHAR
STARTCHAR e
ENCODING 101
SWIDTH 434 0
DWIDTH 5 0
BBX 5 6 0 0
BITMAP
2F40
6280
BE00
A040
B440
2E00
ENDCHAR
STARTCHAR f
ENCODING 102
SWIDTH 299 0
DWIDTH 3 0
BBX 6 15 -1 -2
BITMAP
01E0
0220
0570
08E0
0C00
7F40
0D00
0D00
0D00
0D00
0D00
0D00
0E00
1F80
1000
ENDCHAR
STARTCHAR g
ENCODING 103
SWIDTH 567 0
DWIDTH 6 0
BBX 7 11 0 -4
BITMAP
00B4
2F64
71C0
B1C0
2F40
2000
2F80
61A0
D070
E090
7F40
ENDCHAR
STARTCHAR h
ENCODING 104
SWIDTH 566 0
DWIDTH 6 0
BBX 7 11 -1 0
BITMAP
0500
3D00
0900
0900
0800
0800
09E0
0D34
0C34
1C34
7EBC
ENDCHAR
STARTCHAR i
ENCODING 105
SWIDTH 301 0
DWIDTH 3 0
BBX 3 7 0 1
BITMAP
24
B4
34
34
30
34
BC
ENDCHAR
STARTCHAR j
ENCODING 106
SWIDTH 367 0
DWIDTH 4 0
BBX 6 12 -2 -6
BITMAP
0180
0000
07D0
01E0
00A0
0060
0060
0020
2C60
6450
2180
2F40
ENDCHAR
STARTCHAR k
ENCODING 107
SWIDTH 567 0
DWIDTH 6 0
BBX 7 12 -1 -1
BITMAP
1800
BC00
0C00
0C00
0C40
08B4
0980
0B40
0A84
09D4
0E78
2AC0
ENDCHAR
STARTCHAR l
ENCODING 108
SWIDTH 354 0
DWIDTH 4 0
BBX 5 10 -1 0
BITMAP
0500
1D00
6D00
0900
0A00
0A00
0600
0600
0700
1F80
ENDCHAR
STARTCHAR m
ENCODING 109
SWIDTH 708 0
DWIDTH 8 0
BBX 8 6 0 1
BITMAP
1000
7BB8
258C
27CC
781C
0001
ENDCHAR
STARTCHAR n
ENCODING 110
SWIDTH 584 0
DWIDTH 6 0
BBX 6 8 0 -1
BITMAP
1000
72D0
3470
2870
1870
1860
3EE0
0010
ENDCHAR
STARTCHAR o
ENCODING 111
SWIDTH 503 0
DWIDTH 6 0
BBX 6 5 0 1
BITMAP
2F40
A1C0
A0D0
B0C0
2F40
ENDCHAR
STARTCHAR p
ENCODING 112
SWIDTH 509 0
DWIDTH 6 0
BBX 6 11 0 -5
BITMAP
1400
BB80
28D0
2490
24C0
2F40
2400
2400
2400
3800
BD00
ENDCHAR
STARTCHAR q
ENCODING 113
SWIDTH 505 0
DWIDTH 6 0
BBX 6 11 0 -5
BITMAP
7E80
A240
A240
7F40
0240
0240
0240
0240
0240
0FD0
0050
ENDCHAR
STARTCHAR r
ENCODING 114
SWIDTH 414 0
DWIDTH 5 0
BBX 5 8 0 0
BITMAP
02C0
B580
3800
2400
2800
2800
2800
BE00
ENDCHAR
STARTCHAR s
ENCODING 115
SWIDTH 482 0
DWIDTH 5 0
BBX 6 8 0 -1
BITMAP
1F40
2440
1840
0600
1180
60D0
61D0
0B80
ENDCHAR
STARTCHAR t
ENCODING 116
SWIDTH 434 0
DWIDTH 5 0
BBX 5 9 0 0
BITMAP
0500
1C00
BF00
2800
3400
3000
3000
3580
1F40
ENDCHAR
STARTCHAR u
ENCODING 117
SWIDTH 744 0
DWIDTH 8 0
BBX 8 6 0 0
BITMAP
14F4
B824
1828
1C28
0D2F
0784
ENDCHAR
STARTCHAR v
ENCODING 118
SWIDTH 600 0
DWIDTH 7 0
BBX 7 7 0 0
BITMAP
1800
6800
1CB4
0D10
0640
0380
0140
ENDCHAR
STARTCHAR w
ENCODING 119
SWIDTH 745 0
DWIDTH 8 0
BBX 8 6 0 0
BITMAP
1407
F885
28E4
1D74
0D20
0800
ENDCHAR
STARTCHAR x
ENCODING 120
SWIDTH 548 0
DWIDTH 6 0
BBX 6 6 0 1
BITMAP
0600
FDF0
1D40
0B00
0B40
6BE0
ENDCHAR
STARTCHAR y
ENCODING 121
SWIDTH 659 0
DWIDTH 7 0
BBX 7 11 0 -5
BITMAP
1900
B8FC
3438
2424
1C74
0BA4
0020
0020
1D50
1A80
1E40
ENDCHAR
STARTCHAR z
ENCODING 122
SWIDTH 460 0
DWIDTH 5 0
BBX 5 5 0 0
BITMAP
BF40
8200
4800
2440
7FC0
ENDCHAR
STARTCHAR braceleft
ENCODING 123
SWIDTH 460 0
DWIDTH 5 0
BBX 5 14 0 -3
BITMAP
0780
0C00
0C00
0D00
0D00
0D00
6400
1400
0C00
0D00
0D00
0D00
0D40
0780
ENDCHAR
STARTCHAR bar
ENCODING 124
SWIDTH 368 0
DWIDTH 4 0
BBX 2 12 1 -2
BITMAP
40
40
40
40
40
50
10
10
10
10
10
10
ENDCHAR
STARTCHAR braceright
ENCODING 125
SWIDTH 476 0
DWIDTH 5 0
BBX 5 12 0 -3
BITMAP
7C00
4E00
0A00
0A00
0240
0140
0240
0180
00C0
00C0
0180
0A00
ENDCHAR
STARTCHAR asciitilde
ENCODING 126
SWIDTH 733 0
DWIDTH 8 0
BBX 8 2 0 2
BITMAP
2E45
51F8
ENDCHAR
STARTCHAR nonbreakingspace
ENCODING 160
SWIDTH 270 0
DWIDTH 3 0
BBX 1 1 0 0
BITMAP
00
ENDCHAR
STARTCHAR exclamdown
ENCODING 161
SWIDTH 247 0
DWIDTH 3 0
BBX 2 11 0 -1
BITMAP
60
00
10
20
20
30
30
70
70
70
70
ENDCHAR
STARTCHAR cent
ENCODING 162
SWIDTH 799 0
DWIDTH 9 0
BBX 5 9 2 -2
BITMAP
1000
2E40
A180
C580
C400
E440
6F00
0100
0100
ENDCHAR
STARTCHAR sterling
ENCODING 163
SWIDTH 799 0
DWIDTH 9 0
BBX 6 10 2 -1
BITMAP
1F40
6280
A340
A000
7400
7800
1C00
0C00
FD10
F6D0
ENDCHAR
STARTCHAR currency
ENCODING 164
SWIDTH 732 0
DWIDTH 8 0
BBX 6 8 1 0
BITMAP
0040
AF80
9090
4050
8180
BE80
9010
4000
ENDCHAR
STARTCHAR yen
ENCODING 165
SWIDTH 799 0
DWIDTH 9 0
BBX 9 12 0 -2
BITMAP
010000
7E0140
1F2D00
078400
01E000
00E000
0BFF00
05FC00
009000
00E000
06F800
054000
ENDCHAR
STARTCHAR brokenbar
ENCODING 166
SWIDTH 341 0
DWIDTH 4 0
BBX 1 13 1 -3
BITMAP
40
40
40
40
40
00
40
40
40
40
40
40
40
ENDCHAR
STARTCHAR section
ENCODING 167
SWIDTH 546 0
DWIDTH 6 0
BBX 6 12 0 -3
BITMAP
0B80
24D0
34D0
2E00
2780
6090
3850
1B40
0180
0040
1C40
0F40
ENDCHAR
STARTCHAR dieresis
ENCODING 168
SWIDTH 393 0
DWIDTH 4 0
BBX 3 1 1 7
BITMAP
94
ENDCHAR
STARTCHAR copyright
ENCODING 169
SWIDTH 1023 0
DWIDTH 11 0
BBX 11 10 0 -2
BITMAP
02FE40
090590
21F424
134408
430408
434408
51F414
200020
190190
06FE00
ENDCHAR
STARTCHAR ordfeminine
ENCODING 170
SWIDTH 558 0
DWIDTH 6 0
BBX 6 6 0 3
BITMAP
3D00
6600
0300
2F00
6350
3DD0
ENDCHAR
STARTCHAR guillemotleft
ENCODING 171
SWIDTH 608 0
DWIDTH 7 0
BBX 6 10 0 -3
BITMAP
0010
0110
0210
0990
79D0
28A0
0930
0220
0140
0040
ENDCHAR
STARTCHAR logicalnot
ENCODING 172
SWIDTH 616 0
DWIDTH 7 0
BBX 7 3 0 2
BITMAP
7FB0
0014
0010
ENDCHAR
STARTCHAR uni00AD
ENCODING 173
SWIDTH 436 0
DWIDTH 5 0
BBX 4 1 0 2
BITMAP
7F
ENDCHAR
STARTCHAR registered
ENCODING 174
SWIDTH 1048 0
DWIDTH 12 0
BBX 11 10 0 -2
BITMAP
02BE40
0FFDA0
218A14
508904
40F804
41E844
57FB84
200014
1D01A0
02FE40
ENDCHAR
STARTCHAR macron
ENCODING 175
SWIDTH 382 0
DWIDTH 4 0
BBX 4 1 0 9
BITMAP
7E
ENDCHAR
STARTCHAR degree
ENCODING 176
SWIDTH 346 0
DWIDTH 4 0
BBX 4 3 0 8
BITMAP
38
55
38
ENDCHAR
STARTCHAR plusminus
ENCODING 177
SWIDTH 580 0
DWIDTH 6 0
BBX 6 5 0 2
BITMAP
0100
0100
3FA0
0100
7A80
ENDCHAR
STARTCHAR twosuperior
ENCODING 178
SWIDTH 365 0
DWIDTH 4 0
BBX 4 6 0 4
BITMAP
2D
0A
09
18
60
1C
ENDCHAR
STARTCHAR threesuperior
ENCODING 179
SWIDTH 371 0
DWIDTH 4 0
BBX 4 5 0 4
BITMAP
78
14
4A
46
3D
ENDCHAR
STARTCHAR acute
ENCODING 180
SWIDTH 234 0
DWIDTH 3 0
BBX 2 2 0 8
BITMAP
20
50
ENDCHAR
STARTCHAR mu
ENCODING 181
SWIDTH 634 0
DWIDTH 7 0
BBX 7 9 0 -4
BITMAP
90C0
90C0
A0D4
75E4
6F78
6000
6000
7000
7000
ENDCHAR
STARTCHAR paragraph
ENCODING 182
SWIDTH 707 0
DWIDTH 8 0
BBX 8 13 0 -4
BITMAP
0014
2FF4
BE30
FD20
BD20
1D20
0930
0530
0630
0634
063E
0A00
7900
ENDCHAR
STARTCHAR periodcentered
ENCODING 183
SWIDTH 238 0
DWIDTH 3 0
BBX 2 2 0 4
BITMAP
70
70
ENDCHAR
STARTCHAR cedilla
ENCODING 184
SWIDTH 332 0
DWIDTH 4 0
BBX 3 4 0 -3
BITMAP
10
18
0C
78
ENDCHAR
STARTCHAR onesuperior
ENCODING 185
SWIDTH 336 0
DWIDTH 4 0
BBX 4 5 0 5
BITMAP
04
18
18
68
69
ENDCHAR
STARTCHAR ordmasculine
ENCODING 186
SWIDTH 503 0
DWIDTH 6 0
BBX 5 5 0 3
BITMAP
2E40
51C0
8080
6080
2F40
ENDCHAR
STARTCHAR guillemotright
ENCODING 187
SWIDTH 778 0
DWIDTH 9 0
BBX 8 10 0 -3
BITMAP
0100
4080
2060
1E5D
039D
0634
1890
2080
1140
0100
ENDCHAR
STARTCHAR onequarter
ENCODING 188
SWIDTH 876 0
DWIDTH 10 0
BBX 10 10 0 0
BITMAP
040100
180500
180400
682000
694500
014900
020640
042F80
140700
100FD0
ENDCHAR
STARTCHAR onehalf
ENCODING 189
SWIDTH 762 0
DWIDTH 8 0
BBX 8 10 0 0
BITMAP
0401
1805
1804
6820
695D
0157
0206
0408
1420
101D
ENDCHAR
STARTCHAR threequarters
ENCODING 190
SWIDTH 922 0
DWIDTH 10 0
BBX 10 10 0 0
BITMAP
000040
780100
140500
4A1400
462100
3D4700
014650
011FD0
040280
1007F0
ENDCHAR
STARTCHAR questiondown
ENCODING 191
SWIDTH 571 0
DWIDTH 6 0
BBX 6 11 0 -2
BITMAP
0700
0700
0000
0100
0100
0900
29E0
71F0
B030
B860
2F80
ENDCHAR
STARTCHAR Agrave
ENCODING 192
SWIDTH 784 0
DWIDTH 9 0
BBX 9 12 0 -1
BITMAP
080000
050000
0F8000
02D000
01A000
057000
047400
0BF800
087C00
201D00
F40E00
143F80
ENDCHAR
STARTCHAR Aacute
ENCODING 193
SWIDTH 784 0
DWIDTH 9 0
BBX 9 12 0 -1
BITMAP
008000
014000
0F8000
02D000
01A000
057000
047400
0BF800
087C00
201D00
F40E00
143F80
ENDCHAR
STARTCHAR Acircumflex
ENCODING 194
SWIDTH 784 0
DWIDTH 9 0
BBX 9 12 0 -1
BITMAP
019000
057400
0F8000
02D000
01A000
057000
047400
0BF800
087C00
201D00
F40E00
143F80
ENDCHAR
STARTCHAR Atilde
ENCODING 195
SWIDTH 784 0
DWIDTH 9 0
BBX 9 13 0 -1
BITMAP
0A4000
01E000
000000
0F8000
02D000
01A000
057000
047400
0BF800
087C00
201D00
F40E00
143F80
ENDCHAR
STARTCHAR Adieresis
ENCODING 196
SWIDTH 784 0
DWIDTH 9 0
BBX 9 12 0 -1
BITMAP
060000
066000
0F8000
02D000
01A000
057000
047400
0BF800
087C00
201D00
F40E00
143F80
ENDCHAR
STARTCHAR Aring
ENCODING 197
SWIDTH 784 0
DWIDTH 9 0
BBX 9 13 0 -1
BITMAP
02C000
025000
02C000
0F8000
02D000
01A000
057000
047400
0BF800
087C00
201D00
F40E00
143F80
ENDCHAR
STARTCHAR AE
ENCODING 198
SWIDTH 1172 0
DWIDTH 13 0
BBX 13 11 0 -2
BITMAP
0001BC00
00BF9400
00160000
00170000
00171400
0047F400
00FF4440
01438080
02038680
1C03D400
FF050000
ENDCHAR
STARTCHAR Ccedilla
ENCODING 199
SWIDTH 742 0
DWIDTH 8 0
BBX 8 15 0 -5
BITMAP
0001
0005
0BFD
3919
B001
A000
E000
F001
B401
3D05
0BF4
0040
0090
0020
01D0
ENDCHAR
STARTCHAR Egrave
ENCODING 200
SWIDTH 557 0
DWIDTH 6 0
BBX 6 13 0 -2
BITMAP
2000
0800
5690
7810
3800
2800
2F00
1900
1800
1800
1C20
BFF0
0050
ENDCHAR
STARTCHAR Eacute
ENCODING 201
SWIDTH 557 0
DWIDTH 6 0
BBX 6 13 0 -2
BITMAP
0140
0100
5690
7810
3800
2800
2F00
1900
1800
1800
1C20
BFF0
0050
ENDCHAR
STARTCHAR Ecircumflex
ENCODING 202
SWIDTH 557 0
DWIDTH 6 0
BBX 6 13 0 -2
BITMAP
0640
15C0
5690
7810
3800
2800
2F00
1900
1800
1800
1C20
BFF0
0050
ENDCHAR
STARTCHAR Edieresis
ENCODING 203
SWIDTH 557 0
DWIDTH 6 0
BBX 6 13 0 -2
BITMAP
1800
1940
5690
7810
3800
2800
2F00
1900
1800
1800
1C20
BFF0
0050
ENDCHAR
STARTCHAR Igrave
ENCODING 204
SWIDTH 438 0
DWIDTH 5 0
BBX 7 14 -1 -2
BITMAP
0800
0200
3AF4
0B40
0700
0700
0600
0600
0600
0500
0500
0A00
1F80
5000
ENDCHAR
STARTCHAR Iacute
ENCODING 205
SWIDTH 438 0
DWIDTH 5 0
BBX 7 13 -1 -2
BITMAP
0080
3BF4
0B40
0700
0700
0600
0600
0600
0500
0500
0A00
1F80
5000
ENDCHAR
STARTCHAR Icircumflex
ENCODING 206
SWIDTH 438 0
DWIDTH 5 0
BBX 7 14 -1 -2
BITMAP
0280
04A0
3AF4
0B40
0700
0700
0600
0600
0600
0500
0500
0A00
1F80
5000
ENDCHAR
STARTCHAR Idieresis
ENCODING 207
SWIDTH 438 0
DWIDTH 5 0
BBX 7 14 -1 -2
BITMAP
0D00
0DC0
3AF4
0B40
0700
0700
0600
0600
0600
0500
0500
0A00
1F80
5000
ENDCHAR
STARTCHAR Eth
ENCODING 208
SWIDTH 730 0
DWIDTH 8 0
BBX 8 9 0 -2
BITMAP
6BE4
1C6D
1C0F
1C0F
7E0F
1C0E
1C6C
2F90
5000
ENDCHAR
STARTCHAR Ntilde
ENCODING 209
SWIDTH 799 0
DWIDTH 9 0
BBX 9 14 0 -3
BITMAP
01D000
006C00
000000
000000
FD1F80
2F4500
17D100
11F500
107D00
102D00
100800
240000
BD0000
040000
ENDCHAR
STARTCHAR Ograve
ENCODING 210
SWIDTH 747 0
DWIDTH 8 0
BBX 8 11 0 0
BITMAP
0800
0200
0000
1BE4
342D
A00F
D00B
E007
B00B
381D
0BE4
ENDCHAR
STARTCHAR Oacute
ENCODING 211
SWIDTH 747 0
DWIDTH 8 0
BBX 8 11 0 0
BITMAP
0080
0140
0000
1BE4
342D
A00F
D00B
E007
B00B
381D
0BE4
ENDCHAR
STARTCHAR Ocircumflex
ENCODING 212
SWIDTH 747 0
DWIDTH 8 0
BBX 8 11 0 0
BITMAP
0280
0460
0000
1BE4
342D
A00F
D00B
E007
B00B
381D
0BE4
ENDCHAR
STARTCHAR Otilde
ENCODING 213
SWIDTH 747 0
DWIDTH 8 0
BBX 8 11 0 0
BITMAP
0740
01E0
0000
1BE4
342D
A00F
D00B
E007
B00B
381D
0BE4
ENDCHAR
STARTCHAR Odieresis
ENCODING 214
SWIDTH 747 0
DWIDTH 8 0
BBX 8 11 0 0
BITMAP
0600
0650
0000
1BE4
342D
A00F
D00B
E007
B00B
381D
0BE4
ENDCHAR
STARTCHAR multiply
ENCODING 215
SWIDTH 541 0
DWIDTH 6 0
BBX 5 6 0 0
BITMAP
0080
1100
0900
0540
2000
4000
ENDCHAR
STARTCHAR Oslash
ENCODING 216
SWIDTH 747 0
DWIDTH 8 0
BBX 8 10 0 -1
BITMAP
0001
1BE8
342D
A02F
D08B
E107
B40B
781D
2BE4
4000
ENDCHAR
STARTCHAR Ugrave
ENCODING 217
SWIDTH 690 0
DWIDTH 8 0
BBX 8 11 0 0
BITMAP
0200
0080
0000
1680
FEBF
2C18
2C04
2C04
1C04
0E14
07E0
ENDCHAR
STARTCHAR Uacute
ENCODING 218
SWIDTH 690 0
DWIDTH 8 0
BBX 8 10 0 0
BITMAP
0008
0014
1680
FEBF
2C18
2C04
2C04
1C04
0E14
07E0
ENDCHAR
STARTCHAR Ucircumflex
ENCODING 219
SWIDTH 690 0
DWIDTH 8 0
BBX 8 11 0 0
BITMAP
0090
0128
0000
1680
FEBF
2C18
2C04
2C04
1C04
0E14
07E0
ENDCHAR
STARTCHAR Udieresis
ENCODING 220
SWIDTH 690 0
DWIDTH 8 0
BBX 8 11 0 0
BITMAP
0340
0260
0000
1680
FEBF
2C18
2C04
2C04
1C04
0E14
07E0
ENDCHAR
STARTCHAR Yacute
ENCODING 221
SWIDTH 796 0
DWIDTH 9 0
BBX 10 13 0 -2
BITMAP
000800
051500
BD03E0
2D0100
074400
02E000
00E000
00A000
00A000
00A000
00E000
07F400
001400
ENDCHAR
STARTCHAR Thorn
ENCODING 222
SWIDTH 479 0
DWIDTH 5 0
BBX 6 11 0 -1
BITMAP
BD00
2400
2F80
25D0
20D0
2F80
2400
2400
3400
3400
BC00
ENDCHAR
STARTCHAR germandbls
ENCODING 223
SWIDTH 591 0
DWIDTH 7 0
BBX 7 12 0 -1
BITMAP
7D00
8600
8200
8200
8000
9F80
91E0
6074
3024
3760
76D0
4000
ENDCHAR
STARTCHAR agrave
ENCODING 224
SWIDTH 527 0
DWIDTH 6 0
BBX 6 10 0 -1
BITMAP
5000
2000
2E00
5740
3240
0280
6F80
92C0
79D0
00B0
ENDCHAR
STARTCHAR aacute
ENCODING 225
SWIDTH 527 0
DWIDTH 6 0
BBX 6 10 0 -1
BITMAP
0200
0500
2E00
5740
3240
0280
6F80
92C0
79D0
00B0
ENDCHAR
STARTCHAR acircumflex
ENCODING 226
SWIDTH 527 0
DWIDTH 6 0
BBX 6 10 0 -1
BITMAP
0900
1280
2E00
5740
3240
0280
6F80
92C0
79D0
00B0
ENDCHAR
STARTCHAR atilde
ENCODING 227
SWIDTH 527 0
DWIDTH 6 0
BBX 6 10 0 -1
BITMAP
2900
0780
2E00
5740
3240
0280
6F80
92C0
79D0
00B0
ENDCHAR
STARTCHAR adieresis
ENCODING 228
SWIDTH 527 0
DWIDTH 6 0
BBX 6 9 0 -1
BITMAP
2500
2E00
5740
3240
0280
6F80
92C0
79D0
00B0
ENDCHAR
STARTCHAR aring
ENCODING 229
SWIDTH 527 0
DWIDTH 6 0
BBX 6 11 0 -1
BITMAP
1E00
2200
1E00
2E00
5740
3240
0280
6F80
92C0
79D0
00B0
ENDCHAR
STARTCHAR ae
ENCODING 230
SWIDTH 700 0
DWIDTH 8 0
BBX 8 8 0 -1
BITMAP
0078
794D
5A1C
07E4
2E00
9701
8785
75F8
ENDCHAR
STARTCHAR ccedilla
ENCODING 231
SWIDTH 437 0
DWIDTH 5 0
BBX 5 9 0 -2
BITMAP
2F00
5740
8000
9040
A040
2E00
0400
1200
1E00
ENDCHAR
STARTCHAR egrave
ENCODING 232
SWIDTH 434 0
DWIDTH 5 0
BBX 5 9 0 0
BITMAP
2000
1400
0000
2F40
6280
BE00
A040
B440
2E00
ENDCHAR
STARTCHAR eacute
ENCODING 233
SWIDTH 434 0
DWIDTH 5 0
BBX 5 9 0 0
BITMAP
0200
0400
0000
2F40
6280
BE00
A040
B440
2E00
ENDCHAR
STARTCHAR ecircumflex
ENCODING 234
SWIDTH 434 0
DWIDTH 5 0
BBX 5 9 0 0
BITMAP
0900
1280
0000
2F40
6280
BE00
A040
B440
2E00
ENDCHAR
STARTCHAR edieresis
ENCODING 235
SWIDTH 434 0
DWIDTH 5 0
BBX 5 8 0 0
BITMAP
1600
0000
2F40
6280
BE00
A040
B440
2E00
ENDCHAR
STARTCHAR igrave
ENCODING 236
SWIDTH 301 0
DWIDTH 3 0
BBX 4 8 -1 1
BITMAP
60
14
2D
0D
0D
0C
0D
2F
ENDCHAR
STARTCHAR iacute
ENCODING 237
SWIDTH 301 0
DWIDTH 3 0
BBX 3 8 0 1
BITMAP
08
10
B4
34
34
30
34
BC
ENDCHAR
STARTCHAR icircumflex
ENCODING 238
SWIDTH 301 0
DWIDTH 3 0
BBX 4 8 0 1
BITMAP
24
4A
B4
34
34
30
34
BC
ENDCHAR
STARTCHAR idieresis
ENCODING 239
SWIDTH 301 0
DWIDTH 3 0
BBX 3 7 0 1
BITMAP
68
B4
34
34
30
34
BC
ENDCHAR
STARTCHAR eth
ENCODING 240
SWIDTH 476 0
DWIDTH 5 0
BBX 6 10 -1 -1
BITMAP
0040
2F40
51C0
0060
0060
0BF0
1C70
1830
1D20
07D0
ENDCHAR
STARTCHAR ntilde
ENCODING 241
SWIDTH 584 0
DWIDTH 6 0
BBX 6 10 0 -1
BITMAP
0740
01E0
1000
72D0
3470
2870
1870
1860
3EE0
0010
ENDCHAR
STARTCHAR ograve
ENCODING 242
SWIDTH 400 0
DWIDTH 4 0
BBX 8 9 0 2
BITMAP
000D
0009
5004
2404
0060
7780
9300
9740
7E00
ENDCHAR
STARTCHAR oacute
ENCODING 243
SWIDTH 400 0
DWIDTH 4 0
BBX 8 9 0 2
BITMAP
000D
0009
0204
0404
0060
7780
9300
9740
7E00
ENDCHAR
STARTCHAR ocircumflex
ENCODING 244
SWIDTH 400 0
DWIDTH 4 0
BBX 8 9 0 2
BITMAP
000D
0009
0004
0904
12A0
7780
9300
9740
7E00
ENDCHAR
STARTCHAR otilde
ENCODING 245
SWIDTH 400 0
DWIDTH 4 0
BBX 8 9 0 2
BITMAP
000D
0009
0004
2904
07A0
7780
9300
9740
7E00
ENDCHAR
STARTCHAR odieresis
ENCODING 246
SWIDTH 400 0
DWIDTH 4 0
BBX 8 9 0 2
BITMAP
000D
0009
0004
2604
0060
7780
9300
9740
7E00
ENDCHAR
STARTCHAR divide
ENCODING 247
SWIDTH 592 0
DWIDTH 7 0
BBX 6 5 0 1
BITMAP
0500
0000
7FE0
0000
0600
ENDCHAR
STARTCHAR oslash
ENCODING 248
SWIDTH 396 0
DWIDTH 4 0
BBX 4 6 0 1
BITMAP
04
7E
9B
A7
7D
10
ENDCHAR
STARTCHAR ugrave
ENCODING 249
SWIDTH 744 0
DWIDTH 8 0
BBX 8 8 0 0
BITMAP
0900
0200
14F4
B824
1828
1C28
0D2F
0784
ENDCHAR
STARTCHAR uacute
ENCODING 250
SWIDTH 744 0
DWIDTH 8 0
BBX 8 8 0 0
BITMAP
0080
0100
14F4
B824
1828
1C28
0D2F
0784
ENDCHAR
STARTCHAR ucircumflex
ENCODING 251
SWIDTH 744 0
DWIDTH 8 0
BBX 8 8 0 0
BITMAP
0240
04A0
14F4
B824
1828
1C28
0D2F
0784
ENDCHAR
STARTCHAR udieresis
ENCODING 252
SWIDTH 744 0
DWIDTH 8 0
BBX 8 8 0 0
BITMAP
0680
0000
14F4
B824
1828
1C28
0D2F
0784
ENDCHAR
STARTCHAR yacute
ENCODING 253
SWIDTH 659 0
DWIDTH 7 0
BBX 7 12 0 -5
BITMAP
0050
1980
B8FC
3438
2424
1C74
0BA4
0020
0020
1D50
1A80
1E40
ENDCHAR
STARTCHAR thorn
ENCODING 254
SWIDTH 514 0
DWIDTH 6 0
BBX 7 16 -1 -6
BITMAP
0800
7800
2400
1800
1FD0
1CB0
1834
1834
0C74
0EE0
0C00
0C00
0C00
0D00
1D00
3F80
ENDCHAR
STARTCHAR ydieresis
ENCODING 255
SWIDTH 659 0
DWIDTH 7 0
BBX 7 13 0 -5
BITMAP
0250
0000
1900
B8FC
3438
2424
1C74
0BA4
0020
0020
1D50
1A80
1E40
ENDCHAR
STARTCHAR dotlessi
ENCODING 305
SWIDTH 301 0
DWIDTH 3 0
BBX 3 6 0 1
BITMAP
B4
34
34
30
34
BC
ENDCHAR
STARTCHAR OE
ENCODING 338
SWIDTH 1132 0
DWIDTH 12 0
BBX 13 11 0 -2
BITMAP
00001800
0BE7FC00
381F4100
A0074000
E0034400
E003E800
B4038400
3D0B8040
0BE78240
0007FF40
00090000
ENDCHAR
STARTCHAR oe
ENCODING 339
SWIDTH 798 0
DWIDTH 9 0
BBX 9 5 0 1
BITMAP
2E2E00
92E200
91FD40
A1E040
2E7E00
ENDCHAR
STARTCHAR circumflex
ENCODING 710
SWIDTH 483 0
DWIDTH 5 0
BBX 4 2 1 7
BITMAP
24
4A
ENDCHAR
STARTCHAR caron
ENCODING 711
SWIDTH 428 0
DWIDTH 5 0
BBX 4 3 0 8
BITMAP
41
28
04
ENDCHAR
STARTCHAR ring
ENCODING 730
SWIDTH 330 0
DWIDTH 4 0
BBX 3 3 0 9
BITMAP
38
58
78
ENDCHAR
STARTCHAR tilde
ENCODING 732
SWIDTH 433 0
DWIDTH 5 0
BBX 4 2 0 8
BITMAP
78
0B
ENDCHAR
STARTCHAR mu.dup1
ENCODING 956
SWIDTH 634 0
DWIDTH 7 0
BBX 7 9 0 -4
BITMAP
90C0
90C0
A0D4
75E4
6F78
6000
6000
7000
7000
ENDCHAR
STARTCHAR endash
ENCODING 8211
SWIDTH 436 0
DWIDTH 5 0
BBX 4 1 0 2
BITMAP
7F
ENDCHAR
STARTCHAR emdash
ENCODING 8212
SWIDTH 651 0
DWIDTH 7 0
BBX 6 2 1 2
BITMAP
5AE0
5000
ENDCHAR
STARTCHAR quoteleft
ENCODING 8216
SWIDTH 287 0
DWIDTH 3 0
BBX 3 4 0 5
BITMAP
10
60
74
74
ENDCHAR
STARTCHAR quoteright
ENCODING 8217
SWIDTH 291 0
DWIDTH 3 0
BBX 3 4 0 5
BITMAP
74
78
18
10
ENDCHAR
STARTCHAR quotesinglbase
ENCODING 8218
SWIDTH 272 0
DWIDTH 3 0
BBX 3 4 0 -2
BITMAP
74
74
10
10
ENDCHAR
STARTCHAR quotedblleft
ENCODING 8220
SWIDTH 445 0
DWIDTH 5 0
BBX 5 4 0 5
BITMAP
1500
2200
7740
7400
ENDCHAR
STARTCHAR quotedblright
ENCODING 8221
SWIDTH 444 0
DWIDTH 5 0
BBX 5 4 0 5
BITMAP
7740
7740
2200
1500
ENDCHAR
STARTCHAR quotedblbase
ENCODING 8222
SWIDTH 482 0
DWIDTH 5 0
BBX 5 4 0 -3
BITMAP
7780
7A80
1540
1100
ENDCHAR
STARTCHAR bullet
ENCODING 8226
SWIDTH 351 0
DWIDTH 4 0
BBX 4 3 0 3
BITMAP
38
7D
38
ENDCHAR
STARTCHAR guilsinglleft
ENCODING 8249
SWIDTH 465 0
DWIDTH 5 0
BBX 5 7 0 -1
BITMAP
0100
0500
1800
7800
1D00
0200
0040
ENDCHAR
STARTCHAR guilsinglright
ENCODING 8250
SWIDTH 449 0
DWIDTH 5 0
BBX 4 7 0 -1
BITMAP
10
24
0D
0E
18
20
40
ENDCHAR
STARTCHAR fraction
ENCODING 8260
SWIDTH 406 0
DWIDTH 4 0
BBX 8 10 -2 0
BITMAP
0001
0008
0014
0050
0080
0200
0500
0400
1000
4000
ENDCHAR
STARTCHAR foursuperior
ENCODING 8308
SWIDTH 473 0
DWIDTH 5 0
BBX 5 6 0 4
BITMAP
0400
1C00
1940
7F40
0A00
1FC0
ENDCHAR
STARTCHAR Euro
ENCODING 8364
SWIDTH 799 0
DWIDTH 9 0
BBX 9 9 0 -1
BITMAP
01BE80
074240
0E0040
1D5000
6D4000
7D0000
1D0100
0E4500
02F800
ENDCHAR
STARTCHAR minus
ENCODING 8722
SWIDTH 436 0
DWIDTH 5 0
BBX 4 1 0 2
BITMAP
7F
ENDCHAR
STARTCHAR f_f
ENCODING 64256
SWIDTH 467 0
DWIDTH 5 0
BBX 7 17 0 -4
BITMAP
0B40
1740
11F0
2274
2674
2500
2500
7F80
2600
3200
3300
2680
26E0
2A40
2800
2D00
BF40
ENDCHAR
STARTCHAR .notdef
ENCODING -1
SWIDTH 270 0
DWIDTH 3 0
BBX 3 7 0 0
BITMAP
B8
00
00
00
00
00
B8
ENDCHAR
STARTCHAR .null
ENCODING -1
SWIDTH 0 0
DWIDTH 0 0
BBX 1 1 0 0
BITMAP
00
ENDCHAR
STARTCHAR nonmarkingreturn
ENCODING -1
SWIDTH 270 0
DWIDTH 3 0
BBX 1 1 0 0
BITMAP
00
ENDCHAR
STARTCHAR dieresis.case
ENCODING -1
SWIDTH 393 0
DWIDTH 4 0
BBX 4 2 0 8
BITMAP
70
66
ENDCHAR
STARTCHAR o.cmp
ENCODING -1
SWIDTH 400 0
DWIDTH 4 0
BBX 8 9 0 2
BITMAP
000D
0009
0004
0004
0060
7780
9300
9740
7E00
ENDCHAR
STARTCHAR n_n
ENCODING -1
SWIDTH 1024 0
DWIDTH 11 0
BBX 11 8 0 -1
BITMAP
200000
B2DB00
2877B4
28775C
186718
186BFC
3EF404
001400
ENDCHAR
STARTCHAR a_a
ENCODING -1
SWIDTH 911 0
DWIDTH 10 0
BBX 11 8 0 0
BITMAP
002E00
003280
7C0180
957EC0
06A5C0
6ED6C0
A77EC4
BAE0B0
ENDCHAR
STARTCHAR t_h
ENCODING -1
SWIDTH 854 0
DWIDTH 9 0
BBX 10 14 0 -3
BITMAP
0BD000
00D000
009000
059000
1C8000
FFF000
18DF40
28D1C0
28CDC0
1DC9C0
07F5C0
0BF680
000F80
000090
ENDCHAR
STARTCHAR s_s
ENCODING -1
SWIDTH 654 0
DWIDTH 7 0
BBX 7 11 0 -2
BITMAP
0004
1EB8
25C4
0880
0590
0270
81A8
9A9C
1E1C
0428
02E0
ENDCHAR
STARTCHAR t_t
ENCODING -1
SWIDTH 569 0
DWIDTH 6 0
BBX 6 10 0 -1
BITMAP
0350
1B80
FF00
3600
3600
3300
3260
25F0
1890
0BD0
ENDCHAR
STARTCHAR e_e
ENCODING -1
SWIDTH 782 0
DWIDTH 9 0
BBX 9 6 0 0
BITMAP
2D7D00
96C600
F9C500
A4E840
2FF140
002E00
ENDCHAR
STARTCHAR o_o
ENCODING -1
SWIDTH 751 0
DWIDTH 8 0
BBX 12 10 0 1
BITMAP
00000C
000009
000004
000004
000060
2FAB80
A1C200
91C700
A1FD00
2E0000
ENDCHAR
STARTCHAR l_l
ENCODING -1
SWIDTH 573 0
DWIDTH 6 0
BBX 8 11 -1 -2
BITMAP
19F0
6C70
1C70
0C70
0C70
0C70
0C70
1C34
1C7D
7D00
0600
ENDCHAR
STARTCHAR z_z
ENCODING -1
SWIDTH 875 0
DWIDTH 10 0
BBX 10 7 0 -1
BITMAP
07F400
7F6000
4A6000
0C8100
25FDA0
6000A0
FFFF80
ENDCHAR
STARTCHAR j_j
ENCODING -1
SWIDTH 577 0
DWIDTH 6 0
BBX 8 15 -2 -7
BITMAP
0024
0024
0184
007D
07EE
01EA
00A7
0063
0063
0022
2C62
6452
21C2
2FE5
00B8
ENDCHAR
STARTCHAR f_b
ENCODING -1
SWIDTH 731 0
DWIDTH 8 0
BBX 9 14 -1 -2
BITMAP
01E000
022000
05B000
086400
0DF400
7C2400
0D2400
0D2400
0D2F40
0D25C0
0D25C0
0D3F40
0F8000
100000
ENDCHAR
STARTCHAR f_k
ENCODING -1
SWIDTH 708 0
DWIDTH 8 0
BBX 8 12 0 -1
BITMAP
0600
3FD0
06A0
16D0
2600
7638
2690
27C0
37D1
3761
B72D
1FE0
ENDCHAR
STARTCHAR f_h
ENCODING -1
SWIDTH 873 0
DWIDTH 10 0
BBX 11 14 -1 -2
BITMAP
01E000
022000
04B000
086800
09F800
1E1800
6C1400
0D1AD0
0D18A0
0D24A0
0D24F8
0DF800
1F8400
140000
ENDCHAR
ENDFONT
